{"accessors":[{"bufferView":0,"byteOffset":0,"componentType":5126,"count":243,"max":[11,1.5,8],"min":[-11,-1.5,-8],"normalized":false,"type":"VEC3"},{"bufferView":1,"byteOffset":0,"componentType":5126,"count":243,"max":[0.000092,0,1,1],"min":[-1,-1,-1,-1],"normalized":false,"type":"VEC4"},{"bufferView":2,"byteOffset":0,"componentType":5126,"count":243,"max":[1,1,1],"min":[-1,-1,-1],"normalized":false,"type":"VEC3"},{"bufferView":3,"byteOffset":0,"componentType":5126,"count":243,"max":[1,1],"min":[0,0],"normalized":false,"type":"VEC2"},{"bufferView":4,"byteOffset":0,"componentType":5125,"count":243,"max":[242],"min":[0],"normalized":false,"type":"SCALAR"},{"bufferView":5,"byteOffset":0,"componentType":5126,"count":129,"max":[7,1.5,5],"min":[-7,-1.5,-5],"normalized":false,"type":"VEC3"},{"bufferView":6,"byteOffset":0,"componentType":5126,"count":129,"max":[0,0,0.000076,1],"min":[-1,-1,-1,-1],"normalized":false,"type":"VEC4"},{"bufferView":7,"byteOffset":0,"componentType":5126,"count":129,"max":[1,1,1],"min":[-1,-1,-1],"normalized":false,"type":"VEC3"},{"bufferView":8,"byteOffset":0,"componentType":5126,"count":129,"max":[1,1],"min":[0,0],"normalized":false,"type":"VEC2"},{"bufferView":9,"byteOffset":0,"componentType":5125,"count":129,"max":[128],"min":[0],"normalized":false,"type":"SCALAR"},{"bufferView":10,"byteOffset":0,"componentType":5126,"count":120,"max":[13,1.5,10],"min":[-13,-1.5,-10],"normalized":false,"type":"VEC3"},{"bufferView":11,"byteOffset":0,"componentType":5126,"count":120,"max":[0,0,0.000076,-1],"min":[-1,-1,-1,-1],"normalized":false,"type":"VEC4"},{"bufferView":12,"byteOffset":0,"componentType":5126,"count":120,"max":[1,1,1],"min":[-1,-1,-1],"normalized":false,"type":"VEC3"},{"bufferView":13,"byteOffset":0,"componentType":5126,"count":120,"max":[1,1],"min":[0,0],"normalized":false,"type":"VEC2"},{"bufferView":14,"byteOffset":0,"componentType":5125,"count":120,"max":[119],"min":[0],"normalized":false,"type":"SCALAR"},{"bufferView":15,"byteOffset":0,"componentType":5126,"count":60,"max":[5,1.5,0],"min":[-5,-1.5,-16],"normalized":false,"type":"VEC3"},{"bufferView":16,"byteOffset":0,"componentType":5126,"count":60,"max":[0,0,0.000076,1],"min":[-1,-1,-1,-1],"normalized":false,"type":"VEC4"},{"bufferView":17,"byteOffset":0,"componentType":5126,"count":60,"max":[1,1,1],"min":[-1,-1,-1],"normalized":false,"type":"VEC3"},{"bufferView":18,"byteOffset":0,"componentType":5126,"count":60,"max":[1,1],"min":[0,0],"normalized":false,"type":"VEC2"},{"bufferView":19,"byteOffset":0,"componentType":5125,"count":60,"max":[59],"min":[0],"normalized":false,"type":"SCALAR"},{"bufferView":20,"byteOffset":0,"componentType":5126,"count":957,"max":[28,4.5,6],"min":[-36,-1.5,-32],"normalized":false,"type":"VEC3"},{"bufferView":21,"byteOffset":0,"componentType":5126,"count":957,"max":[1,0.000031,1,1],"min":[-1,-1,-1,1],"normalized":false,"type":"VEC4"},{"bufferView":22,"byteOffset":0,"componentType":5126,"count":957,"max":[1,1,1],"min":[-1,-1,-1],"normalized":false,"type":"VEC3"},{"bufferView":23,"byteOffset":0,"componentType":5126,"count":957,"max":[1,1],"min":[0,0],"normalized":false,"type":"VEC2"},{"bufferView":24,"byteOffset":0,"componentType":5125,"count":957,"max":[956],"min":[0],"normalized":false,"type":"SCALAR"}],"asset":{"generator":"Godot Engine v4.1.1.stable.official@bd6af8e0ea69167dd0627f3bd54f9105bda0f8b5","version":"2.0"},"bufferViews":[{"buffer":0,"byteLength":2916,"byteOffset":0},{"buffer":0,"byteLength":3888,"byteOffset":2916},{"buffer":0,"byteLength":2916,"byteOffset":6804},{"buffer":0,"byteLength":1944,"byteOffset":9720},{"buffer":0,"byteLength":972,"byteOffset":11664},{"buffer":0,"byteLength":1548,"byteOffset":12636},{"buffer":0,"byteLength":2064,"byteOffset":14184},{"buffer":0,"byteLength":1548,"byteOffset":16248},{"buffer":0,"byteLength":1032,"byteOffset":17796},{"buffer":0,"byteLength":516,"byteOffset":18828},{"buffer":0,"byteLength":1440,"byteOffset":19344},{"buffer":0,"byteLength":1920,"byteOffset":20784},{"buffer":0,"byteLength":1440,"byteOffset":22704},{"buffer":0,"byteLength":960,"byteOffset":24144},{"buffer":0,"byteLength":480,"byteOffset":25104},{"buffer":0,"byteLength":720,"byteOffset":25584},{"buffer":0,"byteLength":960,"byteOffset":26304},{"buffer":0,"byteLength":720,"byteOffset":27264},{"buffer":0,"byteLength":480,"byteOffset":27984},{"buffer":0,"byteLength":240,"byteOffset":28464},{"buffer":0,"byteLength":11484,"byteOffset":28704},{"buffer":0,"byteLength":15312,"byteOffset":40188},{"buffer":0,"byteLength":11484,"byteOffset":55500},{"buffer":0,"byteLength":7656,"byteOffset":66984},{"buffer":0,"byteLength":3828,"byteOffset":74640}],"buffers":[{"byteLength":78468,"uri":"main_level0.bin"}],"extensions":{"KHR_lights_punctual":{"lights":[{"color":[1,1,1],"intensity":1,"range":340282346638528860000000000000000000000,"type":"directional"}]}},"extensionsUsed":["KHR_lights_punctual"],"materials":[{"extensions":{},"pbrMetallicRoughness":{"baseColorFactor":[0.99999988079071,0.99999988079071,0.99999988079071,1],"metallicFactor":0,"roughnessFactor":1}},{"extensions":{},"pbrMetallicRoughness":{"baseColorFactor":[0.99999988079071,0.99999988079071,0.99999988079071,1],"metallicFactor":0,"roughnessFactor":1}},{"extensions":{},"pbrMetallicRoughness":{"baseColorFactor":[0.99999988079071,0.99999988079071,0.99999988079071,1],"metallicFactor":0,"roughnessFactor":1}},{"extensions":{},"pbrMetallicRoughness":{"baseColorFactor":[0.99999988079071,0.99999988079071,0.99999988079071,1],"metallicFactor":0,"roughnessFactor":1}},{"extensions":{},"pbrMetallicRoughness":{"baseColorFactor":[0.99999988079071,0.99999988079071,0.99999988079071,1],"metallicFactor":0,"roughnessFactor":1}}],"meshes":[{"extras":{"targetNames":[]},"primitives":[{"attributes":{"NORMAL":2,"POSITION":0,"TANGENT":1,"TEXCOORD_0":3},"indices":4,"material":0,"mode":4}]},{"extras":{"targetNames":[]},"primitives":[{"attributes":{"NORMAL":7,"POSITION":5,"TANGENT":6,"TEXCOORD_0":8},"indices":9,"material":1,"mode":4}]},{"extras":{"targetNames":[]},"primitives":[{"attributes":{"NORMAL":12,"POSITION":10,"TANGENT":11,"TEXCOORD_0":13},"indices":14,"material":2,"mode":4}]},{"extras":{"targetNames":[]},"primitives":[{"attributes":{"NORMAL":17,"POSITION":15,"TANGENT":16,"TEXCOORD_0":18},"indices":19,"material":3,"mode":4}]},{"extras":{"targetNames":[]},"primitives":[{"attributes":{"NORMAL":22,"POSITION":20,"TANGENT":21,"TEXCOORD_0":23},"indices":24,"material":4,"mode":4}]}],"nodes":[{"children":[1,2,3,6,8,10,12,23],"extensions":{},"name":"MainLevel"},{"extensions":{},"name":"WorldEnvironment"},{"extensions":{"KHR_lights_punctual":{"light":0}},"name":"DirectionalLight3D","rotation":[-0.12941072881222,0.836515307426453,0.482963681221008,0.22414530813694]},{"children":[4,5],"extensions":{},"mesh":0,"name":"Overhang2","translation":[-20,1.5,11]},{"extensions":{},"name":"Overhang22","translation":[4,0,5]},{"extensions":{},"name":"Corridor6","rotation":[0,0.70710676908493,0,0.70710676908493],"translation":[-5,-0.25,-7]},{"children":[7],"extensions":{},"mesh":1,"name":"Overhang24","translation":[-25,1.5,-5]},{"extensions":{},"name":"Overhang3","translation":[-2.70000076293945,0,0]},{"children":[9],"extensions":{},"mesh":2,"name":"Overhang33","translation":[1,1.5,-9]},{"extensions":{},"name":"Overhang4","translation":[0,1.5,0]},{"children":[11],"extensions":{},"mesh":3,"name":"Overhang43","translation":[27,1.5,-1]},{"extensions":{},"name":"Overhang5","translation":[0,0,8]},{"children":[13],"extensions":{},"mesh":4,"name":"Room2","translation":[4,1.5,13]},{"children":[14,15,16,17,18,19,20,21,22],"extensions":{},"name":"CSGCombiner3D"},{"extensions":{},"name":"Room22","translation":[-24,1.5,-2]},{"extensions":{},"name":"Corridor","translation":[-9,-0.25,0]},{"extensions":{},"name":"Corridor2","rotation":[0,0.70710676908493,0,0.70710676908493],"translation":[-29,-0.25,-11]},{"extensions":{},"name":"Corridor3","translation":[-19,2.75,-17]},{"extensions":{},"name":"Corridor4","rotation":[0,-0.70710676908493,0,0.70710676908493],"translation":[-11,2.75,-10]},{"extensions":{},"name":"Corridor5","translation":[14,2.75,-23]},{"extensions":{},"name":"Room3","translation":[-29,1.5,-18]},{"extensions":{},"name":"Room4","translation":[-3,1.5,-22]},{"extensions":{},"name":"Room5","translation":[23,1.5,-14]},{"extensions":{},"name":"Sprite3D","scale":[2.40000009536743,2.40000009536743,2.40000009536743],"translation":[0,0.100000001490116,0]}],"scene":0,"scenes":[{"nodes":[0]}]}